<mxfile host="app.diagrams.net" modified="2023-04-26T12:04:23.121Z" agent="Mozilla/5.0 (Windows NT 10.0; Win64; x64) AppleWebKit/537.36 (KHTML, like Gecko) Chrome/112.0.0.0 Safari/537.36" version="21.2.2" etag="7SNPVZt-fgRe9QIdfbAk" type="github">
  <diagram name="Page-1" id="Gc2346IGYNyMpIQSpCP1">
    <mxGraphModel>
      <root>
        <mxCell id="0" />
        <mxCell id="1" parent="0" />
      </root>
    </mxGraphModel>
  </diagram>
</mxfile>
